# xmcd
#
# Track frame offsets: 
#        150
#        19803
#        36066
#        49918
#        64445
#        79191
#        89583
#        105752
#        122331
#        140493
#        155854
#
# Disc length: 2340 seconds
#
# Revision: 1
# Processed by: cddbd v1.5.2PL0 Copyright (c) Steve Scherf et al.
# Submitted via: ExactAudioCopy v1.0b3
#
DISCID=9009220b
DTITLE=Ford, Sally - Soul Sick
DYEAR=2017
DGENRE=Pop
TTITLE0=Record On Repeat
TTITLE1=Screw Up
TTITLE2=Loneliness Is Power
TTITLE3=Get Out
TTITLE4=Failure
TTITLE5=Middle Child
TTITLE6=Never Gonna Please
TTITLE7=Romanticized Catastrophe
TTITLE8=Hurts So Bad 
TTITLE9=Unraveling
TTITLE10=Rapid Eyes
EXTD=
EXTT0=
EXTT1=
EXTT2=
EXTT3=
EXTT4=
EXTT5=
EXTT6=
EXTT7=
EXTT8=
EXTT9=
EXTT10=
PLAYORDER=
